<mxfile host="app.diagrams.net" modified="2022-06-13T23:48:32.070Z" agent="5.0 (Macintosh; Intel Mac OS X 10_15_7) AppleWebKit/537.36 (KHTML, like Gecko) Chrome/102.0.5005.115 Safari/537.36" etag="XYOtkg21IxbubOlnm9yF" version="20.0.0" type="github">
  <diagram id="sdCJ4oUJvsJ84IJouLor" name="Page-1">
    <mxGraphModel dx="1026" dy="1687" grid="1" gridSize="10" guides="1" tooltips="1" connect="1" arrows="1" fold="1" page="1" pageScale="1" pageWidth="827" pageHeight="1169" math="0" shadow="0">
      <root>
        <mxCell id="0" />
        <mxCell id="1" parent="0" />
        <mxCell id="zKh06pZbWKSUOYs-atuF-6" value="" style="edgeStyle=orthogonalEdgeStyle;rounded=0;orthogonalLoop=1;jettySize=auto;html=1;fontFamily=Verdana;curved=1;" parent="1" source="zKh06pZbWKSUOYs-atuF-1" target="zKh06pZbWKSUOYs-atuF-5" edge="1">
          <mxGeometry relative="1" as="geometry" />
        </mxCell>
        <mxCell id="zKh06pZbWKSUOYs-atuF-1" value="Command Runner" style="sketch=0;outlineConnect=0;gradientColor=none;fontColor=#545B64;strokeColor=none;fillColor=#879196;dashed=0;verticalLabelPosition=bottom;verticalAlign=top;align=center;html=1;fontSize=12;fontStyle=0;aspect=fixed;shape=mxgraph.aws4.illustration_devices;pointerEvents=1;fontFamily=Verdana;" parent="1" vertex="1">
          <mxGeometry x="40" y="177" width="100" height="73" as="geometry" />
        </mxCell>
        <mxCell id="zKh06pZbWKSUOYs-atuF-5" value="API Gateway" style="outlineConnect=0;dashed=0;verticalLabelPosition=bottom;verticalAlign=top;align=center;html=1;shape=mxgraph.aws3.internet_gateway;fillColor=#F58534;gradientColor=none;fontFamily=Verdana;" parent="1" vertex="1">
          <mxGeometry x="280" y="241" width="69" height="72" as="geometry" />
        </mxCell>
        <mxCell id="zKh06pZbWKSUOYs-atuF-7" value="Authentication Service" style="rounded=0;whiteSpace=wrap;html=1;fontFamily=Verdana;" parent="1" vertex="1">
          <mxGeometry x="470" y="70" width="120" height="60" as="geometry" />
        </mxCell>
        <mxCell id="zKh06pZbWKSUOYs-atuF-12" value="" style="endArrow=classic;startArrow=classic;html=1;rounded=0;fontFamily=Verdana;exitX=1;exitY=0.5;exitDx=0;exitDy=0;exitPerimeter=0;entryX=0;entryY=0.5;entryDx=0;entryDy=0;edgeStyle=orthogonalEdgeStyle;curved=1;" parent="1" source="zKh06pZbWKSUOYs-atuF-5" target="zKh06pZbWKSUOYs-atuF-7" edge="1">
          <mxGeometry width="50" height="50" relative="1" as="geometry">
            <mxPoint x="510" y="300" as="sourcePoint" />
            <mxPoint x="560" y="250" as="targetPoint" />
          </mxGeometry>
        </mxCell>
        <mxCell id="zKh06pZbWKSUOYs-atuF-13" value="Notification Service" style="rounded=0;whiteSpace=wrap;html=1;fontFamily=Verdana;" parent="1" vertex="1">
          <mxGeometry x="550" y="190" width="120" height="60" as="geometry" />
        </mxCell>
        <mxCell id="zKh06pZbWKSUOYs-atuF-14" value="" style="endArrow=classic;startArrow=classic;html=1;rounded=0;fontFamily=Verdana;curved=1;exitX=1;exitY=0.5;exitDx=0;exitDy=0;exitPerimeter=0;entryX=0;entryY=0.5;entryDx=0;entryDy=0;edgeStyle=orthogonalEdgeStyle;" parent="1" source="zKh06pZbWKSUOYs-atuF-5" target="zKh06pZbWKSUOYs-atuF-13" edge="1">
          <mxGeometry width="50" height="50" relative="1" as="geometry">
            <mxPoint x="510" y="290" as="sourcePoint" />
            <mxPoint x="560" y="240" as="targetPoint" />
          </mxGeometry>
        </mxCell>
        <mxCell id="zKh06pZbWKSUOYs-atuF-17" value="Kafka" style="sketch=0;outlineConnect=0;fontColor=#232F3E;gradientColor=none;fillColor=#B0084D;strokeColor=none;dashed=0;verticalLabelPosition=bottom;verticalAlign=top;align=center;html=1;fontSize=12;fontStyle=0;aspect=fixed;pointerEvents=1;shape=mxgraph.aws4.mq_broker;fontFamily=Verdana;" parent="1" vertex="1">
          <mxGeometry x="710" y="340" width="78" height="78" as="geometry" />
        </mxCell>
        <mxCell id="zKh06pZbWKSUOYs-atuF-18" value="" style="endArrow=classic;startArrow=classic;html=1;rounded=0;fontFamily=Verdana;curved=1;exitX=1;exitY=0.5;exitDx=0;exitDy=0;edgeStyle=orthogonalEdgeStyle;" parent="1" source="zKh06pZbWKSUOYs-atuF-13" target="zKh06pZbWKSUOYs-atuF-17" edge="1">
          <mxGeometry width="50" height="50" relative="1" as="geometry">
            <mxPoint x="660" y="330" as="sourcePoint" />
            <mxPoint x="710" y="280" as="targetPoint" />
          </mxGeometry>
        </mxCell>
        <mxCell id="zKh06pZbWKSUOYs-atuF-19" value="Telegram Service" style="rounded=0;whiteSpace=wrap;html=1;fontFamily=Verdana;" parent="1" vertex="1">
          <mxGeometry x="440" y="470" width="120" height="60" as="geometry" />
        </mxCell>
        <mxCell id="zKh06pZbWKSUOYs-atuF-20" value="" style="endArrow=classic;startArrow=classic;html=1;rounded=0;fontFamily=Verdana;curved=1;exitX=1;exitY=0.5;exitDx=0;exitDy=0;edgeStyle=orthogonalEdgeStyle;" parent="1" source="zKh06pZbWKSUOYs-atuF-19" target="zKh06pZbWKSUOYs-atuF-17" edge="1">
          <mxGeometry width="50" height="50" relative="1" as="geometry">
            <mxPoint x="600" y="490" as="sourcePoint" />
            <mxPoint x="590" y="300" as="targetPoint" />
          </mxGeometry>
        </mxCell>
        <mxCell id="zKh06pZbWKSUOYs-atuF-21" value="&lt;h1&gt;Notification Service&lt;/h1&gt;&lt;div&gt;Autentica as chamadas via secret token ou JWT.&lt;/div&gt;&lt;div&gt;Modela e encaminha notificações/mensagens para o Telegram Service.&lt;/div&gt;" style="text;html=1;strokeColor=none;fillColor=none;spacing=5;spacingTop=-20;whiteSpace=wrap;overflow=hidden;rounded=0;fontFamily=Verdana;" parent="1" vertex="1">
          <mxGeometry x="460" y="241" width="190" height="159" as="geometry" />
        </mxCell>
        <mxCell id="zKh06pZbWKSUOYs-atuF-22" value="&lt;h1&gt;Command Runner&lt;/h1&gt;&lt;div&gt;&lt;br&gt;&lt;/div&gt;&lt;div&gt;Interface CLI que é responsável por enviar métricas via API Gateway para o Notification Service.&lt;/div&gt;" style="text;html=1;strokeColor=none;fillColor=none;spacing=5;spacingTop=-20;whiteSpace=wrap;overflow=hidden;rounded=0;fontFamily=Verdana;" parent="1" vertex="1">
          <mxGeometry x="130" y="57" width="190" height="153" as="geometry" />
        </mxCell>
        <mxCell id="zKh06pZbWKSUOYs-atuF-23" value="&lt;h1&gt;Authentication Service&lt;/h1&gt;&lt;div&gt;Irá ser utilizado para autenticar usuários que realizam chamadas via Telegram ou que querem logar via Command Runner.&lt;/div&gt;" style="text;html=1;strokeColor=none;fillColor=none;spacing=5;spacingTop=-20;whiteSpace=wrap;overflow=hidden;rounded=0;fontFamily=Verdana;" parent="1" vertex="1">
          <mxGeometry x="590" y="-60" width="190" height="143" as="geometry" />
        </mxCell>
        <mxCell id="zKh06pZbWKSUOYs-atuF-24" value="Mongo DB" style="sketch=0;points=[[0,0,0],[0.25,0,0],[0.5,0,0],[0.75,0,0],[1,0,0],[0,1,0],[0.25,1,0],[0.5,1,0],[0.75,1,0],[1,1,0],[0,0.25,0],[0,0.5,0],[0,0.75,0],[1,0.25,0],[1,0.5,0],[1,0.75,0]];outlineConnect=0;fontColor=#232F3E;gradientColor=#4D72F3;gradientDirection=north;fillColor=#3334B9;strokeColor=#ffffff;dashed=0;verticalLabelPosition=bottom;verticalAlign=top;align=center;html=1;fontSize=12;fontStyle=0;aspect=fixed;shape=mxgraph.aws4.resourceIcon;resIcon=mxgraph.aws4.database;fontFamily=Verdana;" parent="1" vertex="1">
          <mxGeometry x="392" y="-140" width="78" height="78" as="geometry" />
        </mxCell>
        <mxCell id="zKh06pZbWKSUOYs-atuF-25" value="" style="endArrow=classic;startArrow=classic;html=1;rounded=0;fontFamily=Verdana;curved=1;entryX=0.5;entryY=1;entryDx=0;entryDy=0;entryPerimeter=0;exitX=0.45;exitY=-0.058;exitDx=0;exitDy=0;exitPerimeter=0;edgeStyle=orthogonalEdgeStyle;" parent="1" source="zKh06pZbWKSUOYs-atuF-7" target="zKh06pZbWKSUOYs-atuF-24" edge="1">
          <mxGeometry width="50" height="50" relative="1" as="geometry">
            <mxPoint x="410" y="30" as="sourcePoint" />
            <mxPoint x="460" y="-20" as="targetPoint" />
          </mxGeometry>
        </mxCell>
        <mxCell id="zKh06pZbWKSUOYs-atuF-26" value="Histórico de envio / Status" style="sketch=0;aspect=fixed;html=1;points=[];align=center;image;fontSize=12;image=img/lib/mscae/Cache_Redis_Product.svg;fontFamily=Verdana;" parent="1" vertex="1">
          <mxGeometry x="827" y="160" width="50" height="42" as="geometry" />
        </mxCell>
        <mxCell id="zKh06pZbWKSUOYs-atuF-27" value="" style="endArrow=classic;startArrow=classic;html=1;rounded=0;fontFamily=Verdana;curved=1;entryX=-0.12;entryY=0.536;entryDx=0;entryDy=0;entryPerimeter=0;exitX=1;exitY=0.5;exitDx=0;exitDy=0;edgeStyle=orthogonalEdgeStyle;" parent="1" source="zKh06pZbWKSUOYs-atuF-13" target="zKh06pZbWKSUOYs-atuF-26" edge="1">
          <mxGeometry width="50" height="50" relative="1" as="geometry">
            <mxPoint x="750" y="240" as="sourcePoint" />
            <mxPoint x="800" y="190" as="targetPoint" />
          </mxGeometry>
        </mxCell>
        <mxCell id="zKh06pZbWKSUOYs-atuF-28" value="Telegram" style="sketch=0;outlineConnect=0;gradientColor=none;fontColor=#545B64;strokeColor=none;fillColor=#879196;dashed=0;verticalLabelPosition=bottom;verticalAlign=top;align=center;html=1;fontSize=12;fontStyle=0;aspect=fixed;shape=mxgraph.aws4.illustration_devices;pointerEvents=1;fontFamily=Verdana;" parent="1" vertex="1">
          <mxGeometry x="40" y="457" width="100" height="73" as="geometry" />
        </mxCell>
        <mxCell id="zKh06pZbWKSUOYs-atuF-29" value="" style="endArrow=classic;startArrow=classic;html=1;rounded=0;fontFamily=Verdana;curved=1;entryX=0;entryY=0.5;entryDx=0;entryDy=0;exitX=1;exitY=0.589;exitDx=0;exitDy=0;exitPerimeter=0;edgeStyle=orthogonalEdgeStyle;" parent="1" source="zKh06pZbWKSUOYs-atuF-28" target="zKh06pZbWKSUOYs-atuF-19" edge="1">
          <mxGeometry width="50" height="50" relative="1" as="geometry">
            <mxPoint x="260" y="518.5" as="sourcePoint" />
            <mxPoint x="310" y="468.5" as="targetPoint" />
          </mxGeometry>
        </mxCell>
      </root>
    </mxGraphModel>
  </diagram>
</mxfile>
